inDegrees=no
num_controls=7
num_derivatives=13
num_iterations=125
num_multipliers=7
num_parameters=0
num_slacks=7
num_states=26
objective=0.445747
objective_accelerations=0.057098
objective_balance=0.003423
objective_effort=0.022685
objective_height=0.357000
objective_ligament=0.005541
solver_duration=1889.853503
status=Solve_Succeeded
success=true
DataType=double
version=3
OpenSimVersion=4.5
endheader
time	/jointset/ground_pelvis/pelvis_tilt/value	/jointset/ground_pelvis/pelvis_tx/value	/jointset/ground_pelvis/pelvis_ty/value	/jointset/hip_l/hip_flexion_l/value	/jointset/hip_l/hip_adduction_l/value	/jointset/hip_l/hip_rotation_l/value	/jointset/back/lumbar_extension/value	/jointset/patellofemoral_l/patellar_flexion_l/value	/jointset/knee_l/knee_flexion_l/value	/jointset/knee_l/knee_adduction_l/value	/jointset/knee_l/knee_rotation_l/value	/jointset/ankle_l/ankle_angle_l/value	/jointset/subtalar_l/subtalar_angle_l/value	/jointset/ground_pelvis/pelvis_tilt/speed	/jointset/ground_pelvis/pelvis_tx/speed	/jointset/ground_pelvis/pelvis_ty/speed	/jointset/hip_l/hip_flexion_l/speed	/jointset/hip_l/hip_adduction_l/speed	/jointset/hip_l/hip_rotation_l/speed	/jointset/back/lumbar_extension/speed	/jointset/patellofemoral_l/patellar_flexion_l/speed	/jointset/knee_l/knee_flexion_l/speed	/jointset/knee_l/knee_adduction_l/speed	/jointset/knee_l/knee_rotation_l/speed	/jointset/ankle_l/ankle_angle_l/speed	/jointset/subtalar_l/subtalar_angle_l/speed	/forceset/tau_hip_flexion_l	/forceset/tau_hip_adduction_l	/forceset/tau_hip_rotation_l	/forceset/tau_knee_flexion_l	/forceset/tau_ankle_angle_l	/forceset/tau_subtalar_angle_l	/forceset/tau_lumbar_extension	lambda_cid13_p0	lambda_cid13_p1	lambda_cid13_p2	lambda_cid13_p3	lambda_cid13_p4	lambda_cid13_p5	lambda_cid14_p0	/jointset/ground_pelvis/pelvis_tilt/accel	/jointset/ground_pelvis/pelvis_tx/accel	/jointset/ground_pelvis/pelvis_ty/accel	/jointset/hip_l/hip_flexion_l/accel	/jointset/hip_l/hip_adduction_l/accel	/jointset/hip_l/hip_rotation_l/accel	/jointset/back/lumbar_extension/accel	/jointset/patellofemoral_l/patellar_flexion_l/accel	/jointset/knee_l/knee_flexion_l/accel	/jointset/knee_l/knee_adduction_l/accel	/jointset/knee_l/knee_rotation_l/accel	/jointset/ankle_l/ankle_angle_l/accel	/jointset/subtalar_l/subtalar_angle_l/accel	gamma_cid13_p0	gamma_cid13_p1	gamma_cid13_p2	gamma_cid13_p3	gamma_cid13_p4	gamma_cid13_p5	gamma_cid14_p0
0.5	-0.3352761673890386	-0.03637739904811828	0.7610873063453228	1.090862637463321	-0.436941794401378	-0.222492574500344	-0.2541202773085778	0.8069105233412963	0.806910523341238	-0.1283113602617837	-0.1583982622267263	0.1110458083087971	-0.03096096403931958	-0.7584687112946857	-0.2086503960447916	-0.52707598875884	2.4512026691351	-0.2070996996553091	0.7447523573210372	-0.1174085180105883	1.988701448176581	1.988701448176565	0.1282653967207449	-0.08882951383309921	0.4676549423850548	0.002504698167374973	-0.1669730915803613	0.02281110329839802	-0.01126880606735882	-0.2201670606270994	0.06789785534821059	0.04121283196682204	0.1659487092252346	-11.01819865439848	-19.06874169494092	6.244211257699914	-6.681100586079198	-522.6768076366659	-60.68941223856563	-25.15026198714444	0.7741084023241041	0.6034675554653988	-0.4538370739052375	-1.351973937855693	0.7373240310037248	-0.2093443692870264	1.082345284615511	-1.269044491844692	-1.269044491844697	0.08784343162367464	0.1783865597478661	-0.4884372718371329	0.5525871718701345	-5.438897834132171e-07	-4.559027498057986e-07	2.706066374274467e-06	1.355830201233924e-07	-6.186408357450681e-07	-1.032606416446911e-08	-4.451548325015728e-07
0.51	-0.3428203323063214	-0.03843348515216988	0.7557950141740725	1.115302314358063	-0.4389770349807388	-0.2150544505606848	-0.2552413784890264	0.8267309926422474	0.8267309926422173	-0.1270284789821665	-0.159277207894991	0.1156967201373425	-0.0309101718123196	-0.7502555481397608	-0.2025496417101055	-0.5312690579148475	2.436397090009912	-0.1999327346291211	0.7427689713661574	-0.1068500408499949	1.975126463144155	1.975126463144157	0.1283080142991468	-0.08695312884424283	0.4624520882418171	0.00764174670903143	-0.1724010393261803	0.02361338871158136	-0.01134826355968354	-0.2228414847308992	0.06721747605806098	0.04155745762906621	0.1700964847879312	-11.43263812505783	-19.12248085066329	6.226087817534602	-6.567139768532654	-526.246364748609	-60.31554192600467	-24.23534874876458	0.8611633349546669	0.6159857735742157	-0.3851546413372012	-1.595270004958471	0.7084299472940013	-0.2087402240579075	1.036850516139454	-1.441529524707836	-1.441529524705055	-0.03791859448937376	0.1937851677705528	-0.5475061498732655	0.4922116824879474	-5.295287446246205e-07	-3.63956509684448e-07	2.735010575234358e-06	1.547318169590725e-07	-5.938739619350695e-07	6.163972598994278e-08	-4.375454061535636e-07
0.52	-0.3502791169794796	-0.04042804243265378	0.7504641687502841	1.139583851440533	-0.440940196468064	-0.2076393413836689	-0.2562580445809974	0.8464077512897212	0.8464077512897191	-0.1257452494298526	-0.1601370855735041	0.1202933440915941	-0.03080841950246815	-0.7413926624697161	-0.1963446313312553	-0.5347866392664048	2.419574706680399	-0.1926838812482255	0.7401494047924988	-0.0965215003150733	1.95995931748108	1.959959317481101	0.1283350512600352	-0.08501591588274512	0.4567973675263322	0.01269671473766948	-0.1778289870719988	0.02441567412476208	-0.01142772105200151	-0.2255159088347004	0.06653709676790984	0.04190208329130642	0.1742442603506298	-11.85029942669276	-19.17627885644065	6.208687057349152	-6.487583292130004	-529.8940015732877	-60.00046779274862	-23.32168151470772	0.9040529053480422	0.624318764298228	-0.318739513015249	-1.755334778720833	0.7537017019452436	-0.3365804930428106	1.036357959481169	-1.587476617974355	-1.587476617974356	0.08472730812096058	0.1905521542761314	-0.5788105862865459	0.5361710692664559	-5.145359801116505e-07	-2.743807225333027e-07	2.761658128063717e-06	1.749721693446209e-07	-5.719872782162595e-07	1.338791064021519e-07	-4.294073603095181e-07
0.53	-0.3576462069403907	-0.04236011020388614	0.7451015431366534	1.163687417628628	-0.4428304668401811	-0.2002532189593424	-0.2571726256299699	0.8659250530703142	0.8659250530703628	-0.1244619660571014	-0.1609770770655341	0.1248312381823625	-0.03065650618030053	-0.7319235582518403	-0.1900590910645488	-0.5376218377682577	2.400814124102208	-0.1853621021248834	0.7369789143287867	-0.08644986369555913	1.943245013024984	1.943245013025017	0.1283097626283003	-0.0829733159755499	0.4507096887181632	0.01766703450394308	-0.1831151017085103	0.02495215976149014	-0.01145141856399625	-0.2282665940748924	0.06585780408916968	0.04215676000688037	0.1782362877426128	-12.26973564681128	-19.18693347078896	6.180102609733761	-6.318857524553026	-533.5041029749078	-59.66581156574079	-22.41079598895422	0.9835381803764188	0.6321835561703488	-0.248525263293206	-1.985158960995714	0.722294465509672	-0.3220743938359286	0.9842933807556795	-1.7517261747361	-1.751726174734347	-0.04787976977766407	0.213031034392782	-0.6344964986427872	0.4743374836389646	-4.979795261784787e-07	-1.802189586538993e-07	2.78492774063555e-06	1.984651589555692e-07	-5.518754342217655e-07	2.061627656528353e-07	-4.19286825166751e-07
0.54	-0.3649155660590496	-0.0442290201927887	0.7397140424890997	1.187593630198216	-0.4446473437314686	-0.1929017596538142	-0.2579881449392335	0.8852675480432837	0.8852675480433841	-0.1231792801348572	-0.1617962591334043	0.1293061054909368	-0.03045551464980394	-0.7218464940192006	-0.1837130748652981	-0.5397616460510289	2.380103982978918	-0.178005185082301	0.7332167810330531	-0.07670915237327937	1.924997955956534	1.924997955956579	0.1282155611582868	-0.08085403105029175	0.444192011087566	0.02251235640346252	-0.1884012163450242	0.02548864539821399	-0.01147511607595687	-0.2310172793150877	0.06517851141042749	0.04241143672244779	0.1822283151345954	-12.69294175415423	-19.1976198366962	6.152315205667596	-6.181993400113393	-537.1993129387987	-59.39047240278581	-21.505443472263	1.025644908300807	0.6364139508070646	-0.1796614691989372	-2.145246487740533	0.7607292857933103	-0.4549090594471029	0.9701729000342841	-1.894027140444944	-1.894027140444924	0.07094474046523756	0.2058891578887131	-0.6648103507721532	0.5111714959156294	-4.79693032886786e-07	-8.098334818152927e-08	2.804460057603313e-06	2.255568110286622e-07	-5.337272426882167e-07	2.784954142567242e-07	-4.069728976083772e-07
0.55	-0.3720813134938778	-0.04603425660933688	0.7343086284754383	1.211283362107825	-0.4463904249657747	-0.1855905808016199	-0.258707983688546	0.9044200725705827	0.9044200725706236	-0.1218978869628861	-0.1625936771570878	0.13371371771017	-0.0302066093361938	-0.7112074857909484	-0.1773319382169621	-0.5412030065256022	2.357532054197065	-0.1706080983596005	0.7289190848664227	-0.06733381882661231	1.90526462370768	1.905264623707687	0.1280552000822726	-0.07862463482724005	0.4372638195132482	0.02724647299619661	-0.1934879161306769	0.02580426636441496	-0.01143769674747326	-0.2338450568579596	0.06453152505788139	0.04253812761484557	0.1860143194422122	-13.10462184737045	-19.14982312522329	6.109585881661083	-5.957457281419617	-540.787998425064	-59.06112631061727	-20.6104676155197	1.09728880461799	0.6393521227884957	-0.1087555788819479	-2.359794888833994	0.7292784868286453	-0.4325268790362988	0.9099303813673216	-2.049255085223372	-2.04925508522901	-0.06062957996239272	0.2327702798445331	-0.7167893262547125	0.450871846384326	-4.576925029074424e-07	4.940173065022589e-09	2.793102332465207e-06	2.465137736510737e-07	-5.118591511857015e-07	3.447891456456014e-07	-3.923643467792692e-07
